<svg width="100" height="112" viewBox="0 0 100 112" fill="none" xmlns="http://www.w3.org/2000/svg">
<circle cx="50" cy="62" r="50" fill="#A3B8BF"/>
<path d="M42.3352 92.1C44.1352 91.3667 45.0352 90.0333 45.0352 88.1V59.6C45.0352 58.2667 44.8018 57.3667 44.3352 56.9C43.9352 56.3667 43.2685 56 42.3352 55.8L39.0352 55V53.2C43.3685 52.6 46.7685 52.0667 49.2352 51.6C51.7018 51.1333 54.2685 50.4 56.9352 49.4L57.8352 50.2C56.9685 51.6667 56.5352 54.4667 56.5352 58.6V88.8C56.5352 89.6667 56.8018 90.3667 57.3352 90.9C57.8685 91.4333 58.4685 91.8333 59.1352 92.1L62.4352 93.3V95H39.0352V93.3L42.3352 92.1ZM50.5352 40.4C48.5352 40.4 46.8018 39.7 45.3352 38.3C43.9352 36.9 43.2352 35.1667 43.2352 33.1C43.2352 31.0333 43.9352 29.3 45.3352 27.9C46.8018 26.5 48.5352 25.8 50.5352 25.8C52.6018 25.8 54.3352 26.5 55.7352 27.9C57.2018 29.3 57.9352 31.0333 57.9352 33.1C57.9352 35.1667 57.2018 36.9 55.7352 38.3C54.3352 39.7 52.6018 40.4 50.5352 40.4Z" fill="black"/>
</svg>
