<svg width="122" height="43" viewBox="0 0 122 43" fill="none" xmlns="http://www.w3.org/2000/svg">
<circle cx="61" cy="24" r="16" fill="#A3B8BF"/>
<path d="M10.8969 32.014C11.5089 31.7647 11.8149 31.3113 11.8149 30.654V20.964C11.8149 20.5107 11.7355 20.2047 11.5769 20.046C11.4409 19.8647 11.2142 19.74 10.8969 19.672L9.77488 19.4V18.788C11.2482 18.584 12.4042 18.4027 13.2429 18.244C14.0815 18.0853 14.9542 17.836 15.8609 17.496L16.1669 17.768C15.8722 18.2667 15.7249 19.2187 15.7249 20.624V30.892C15.7249 31.1867 15.8155 31.4247 15.9969 31.606C16.1782 31.7873 16.3822 31.9233 16.6089 32.014L17.7309 32.422V33H9.77488V32.422L10.8969 32.014ZM13.6849 14.436C13.0049 14.436 12.4155 14.198 11.9169 13.722C11.4409 13.246 11.2029 12.6567 11.2029 11.954C11.2029 11.2513 11.4409 10.662 11.9169 10.186C12.4155 9.71 13.0049 9.472 13.6849 9.472C14.3875 9.472 14.9769 9.71 15.4529 10.186C15.9515 10.662 16.2009 11.2513 16.2009 11.954C16.2009 12.6567 15.9515 13.246 15.4529 13.722C14.9769 14.198 14.3875 14.436 13.6849 14.436ZM28.451 33.374C26.751 33.374 25.221 33.1813 23.861 32.796C22.5236 32.388 21.277 31.8893 20.121 31.3C20.3023 30.348 20.393 29.4187 20.393 28.512C20.393 27.2653 20.2456 26.0867 19.951 24.976H21.141C21.3223 27.152 22.0476 28.9087 23.317 30.246C24.609 31.5833 26.3316 32.252 28.485 32.252C29.6636 32.252 30.7176 31.9233 31.647 31.266C32.5763 30.586 33.041 29.5887 33.041 28.274C33.041 27.4353 32.8596 26.744 32.497 26.2C32.157 25.656 31.5563 25.1573 30.695 24.704C29.8336 24.2507 28.553 23.7293 26.853 23.14C24.6543 22.392 23.045 21.5193 22.025 20.522C21.005 19.5247 20.495 18.1647 20.495 16.442C20.495 15.2407 20.7896 14.1413 21.379 13.144C21.9683 12.124 22.841 11.308 23.997 10.696C25.153 10.084 26.5356 9.778 28.145 9.778C28.9383 9.778 29.6183 9.85733 30.185 10.016C30.7516 10.1747 31.2956 10.3787 31.817 10.628C31.9303 10.6733 32.1116 10.764 32.361 10.9C32.633 11.0133 32.8596 11.104 33.041 11.172C33.245 11.2173 33.4376 11.24 33.619 11.24L34.673 11.036L34.775 11.104C34.6843 11.5347 34.639 12.1013 34.639 12.804C34.639 14.0053 34.741 15.0253 34.945 15.864C35.149 16.68 35.251 17.0993 35.251 17.122H34.367C33.823 15.1727 32.9956 13.654 31.885 12.566C30.797 11.4553 29.5276 10.9 28.077 10.9C26.8076 10.9 25.7876 11.2853 25.017 12.056C24.269 12.8267 23.895 13.7333 23.895 14.776C23.895 15.592 24.0423 16.2493 24.337 16.748C24.6316 17.224 25.1643 17.666 25.935 18.074C26.7283 18.4593 27.9523 18.924 29.607 19.468C31.2843 20.0347 32.599 20.6353 33.551 21.27C34.503 21.882 35.183 22.596 35.591 23.412C35.999 24.2053 36.203 25.18 36.203 26.336C36.203 27.7413 35.8743 28.9767 35.217 30.042C34.5823 31.1073 33.6756 31.9347 32.497 32.524C31.341 33.0907 29.9923 33.374 28.451 33.374ZM39.51 40.514C39.85 40.378 40.088 40.208 40.224 40.004C40.36 39.8 40.428 39.5167 40.428 39.154V20.964C40.428 20.5107 40.3487 20.2047 40.19 20.046C40.054 19.8647 39.8273 19.74 39.51 19.672L38.388 19.4V18.788C40.02 18.5387 41.176 18.346 41.856 18.21C42.5587 18.0513 43.352 17.8133 44.236 17.496L44.576 17.768C44.3267 18.1533 44.168 18.822 44.1 19.774H44.168L46.99 18.108C47.4433 17.836 47.874 17.7 48.282 17.7C49.8913 17.7 51.2627 18.0513 52.396 18.754C53.5293 19.434 54.3793 20.352 54.946 21.508C55.5127 22.6413 55.796 23.8767 55.796 25.214C55.796 26.5967 55.5127 27.9113 54.946 29.158C54.3793 30.382 53.518 31.3793 52.362 32.15C51.2287 32.9207 49.846 33.306 48.214 33.306C47.4887 33.306 46.7747 33.2267 46.072 33.068C45.392 32.9093 44.814 32.7053 44.338 32.456V39.392C44.338 39.6413 44.4173 39.8567 44.576 40.038C44.7573 40.2193 45.0293 40.378 45.392 40.514L46.684 40.922V41.5H38.388V40.922L39.51 40.514ZM47.772 32.116C48.9733 32.116 49.8913 31.572 50.526 30.484C51.1833 29.396 51.512 28.07 51.512 26.506C51.512 24.7153 51.1493 23.208 50.424 21.984C49.6987 20.7373 48.6447 20.114 47.262 20.114C46.378 20.114 45.664 20.3973 45.12 20.964C44.576 21.5307 44.304 22.2333 44.304 23.072V27.73C44.304 28.5007 44.4627 29.226 44.78 29.906C45.0973 30.586 45.5167 31.13 46.038 31.538C46.582 31.9233 47.16 32.116 47.772 32.116ZM70.9898 31.3C71.3751 31.3 71.8511 31.198 72.4178 30.994V31.844C71.8284 32.184 71.1824 32.5013 70.4798 32.796C69.7998 33.068 69.2104 33.204 68.7118 33.204C67.4878 33.204 66.7624 32.5467 66.5358 31.232C64.8131 32.5693 63.3624 33.238 62.1838 33.238C61.3451 33.238 60.5744 33.0113 59.8718 32.558C59.1918 32.1047 58.6591 31.4927 58.2738 30.722C57.8884 29.9513 57.6958 29.1353 57.6958 28.274C57.6958 27.866 57.7298 27.5827 57.7978 27.424C57.8884 27.2427 58.0244 27.118 58.2058 27.05L65.1758 24.432C65.5838 24.2733 65.8558 24.1033 65.9918 23.922C66.1278 23.7407 66.1958 23.4687 66.1958 23.106V21.882C66.1958 20.8847 65.9578 20.114 65.4818 19.57C65.0058 19.026 64.2918 18.754 63.3398 18.754C62.7278 18.754 62.2178 18.89 61.8098 19.162C61.4244 19.4113 61.2318 19.706 61.2318 20.046C61.2318 20.2727 61.3791 20.5787 61.6738 20.964C62.0818 21.4853 62.2858 21.9613 62.2858 22.392C62.2858 22.936 62.0931 23.3667 61.7078 23.684C61.3224 23.9787 60.8238 24.126 60.2118 24.126C59.6224 24.126 59.1578 23.956 58.8178 23.616C58.4778 23.276 58.3078 22.8 58.3078 22.188C58.3078 21.3947 58.6024 20.6467 59.1918 19.944C59.7811 19.2413 60.5404 18.686 61.4698 18.278C62.4218 17.87 63.3851 17.666 64.3598 17.666C65.9918 17.666 67.3518 18.0627 68.4398 18.856C69.5504 19.6493 70.1058 20.8167 70.1058 22.358V29.702C70.1058 30.246 70.1624 30.654 70.2758 30.926C70.3891 31.1753 70.6271 31.3 70.9898 31.3ZM66.1958 25.554C66.1958 25.3953 66.1278 25.35 65.9918 25.418L61.8778 26.914C61.7418 26.9593 61.6398 27.0613 61.5718 27.22C61.5264 27.356 61.5038 27.594 61.5038 27.934C61.5038 28.7727 61.7531 29.532 62.2518 30.212C62.7731 30.8693 63.3738 31.198 64.0538 31.198C64.3484 31.198 64.6204 31.1527 64.8698 31.062C65.1191 30.9487 65.4251 30.7787 65.7878 30.552C66.0598 30.3707 66.1958 30.042 66.1958 29.566V25.554ZM80.9345 33.272C79.5065 33.272 78.2258 32.9433 77.0925 32.286C75.9592 31.606 75.0752 30.688 74.4405 29.532C73.8058 28.376 73.4885 27.0953 73.4885 25.69C73.4885 24.1487 73.8285 22.766 74.5085 21.542C75.1885 20.318 76.1292 19.366 77.3305 18.686C78.5318 18.006 79.8692 17.666 81.3425 17.666C83.0878 17.666 84.4705 18.0513 85.4905 18.822C86.5105 19.57 87.0205 20.556 87.0205 21.78C87.0205 22.4827 86.8392 23.0153 86.4765 23.378C86.1365 23.718 85.6945 23.888 85.1505 23.888C84.5385 23.888 84.0512 23.7293 83.6885 23.412C83.3258 23.072 83.1445 22.6187 83.1445 22.052C83.1445 21.6893 83.2352 21.338 83.4165 20.998C83.4392 20.9527 83.4845 20.862 83.5525 20.726C83.6205 20.5673 83.6545 20.3973 83.6545 20.216C83.6545 19.7627 83.4392 19.4 83.0085 19.128C82.5778 18.856 82.0338 18.72 81.3765 18.72C80.3112 18.72 79.4385 19.2867 78.7585 20.42C78.1012 21.5533 77.7725 23.038 77.7725 24.874C77.7725 26.7327 78.2372 28.1947 79.1665 29.26C80.1185 30.3027 81.2972 30.824 82.7025 30.824C84.0625 30.824 85.3998 30.246 86.7145 29.09L87.2925 29.634C85.5245 32.0593 83.4052 33.272 80.9345 33.272ZM98.1087 30.824C99.4687 30.824 100.806 30.246 102.121 29.09L102.699 29.634C100.931 32.0593 98.8114 33.272 96.3407 33.272C94.9127 33.272 93.6321 32.9433 92.4987 32.286C91.3654 31.606 90.4814 30.688 89.8467 29.532C89.2121 28.3533 88.8947 27.0613 88.8947 25.656C88.8947 24.1147 89.2347 22.7433 89.9147 21.542C90.5947 20.318 91.5241 19.366 92.7027 18.686C93.9041 18.006 95.2527 17.666 96.7487 17.666C97.9047 17.666 98.9361 17.938 99.8427 18.482C100.749 19.026 101.452 19.7853 101.951 20.76C102.449 21.712 102.699 22.7887 102.699 23.99C102.699 24.2393 102.631 24.4433 102.495 24.602C102.359 24.7607 102.166 24.84 101.917 24.84H93.1787V24.874C93.1787 26.7327 93.6434 28.1947 94.5727 29.26C95.5247 30.3027 96.7034 30.824 98.1087 30.824ZM96.5447 18.72C95.6381 18.72 94.8901 19.1507 94.3007 20.012C93.7341 20.8733 93.3827 22.0407 93.2467 23.514L98.3127 23.31C98.6301 23.31 98.7887 23.072 98.7887 22.596C98.7887 21.4173 98.5847 20.4767 98.1767 19.774C97.7687 19.0713 97.2247 18.72 96.5447 18.72ZM108.411 33.272C107.663 33.272 107.017 33.0113 106.473 32.49C105.952 31.946 105.691 31.3 105.691 30.552C105.691 29.804 105.952 29.1693 106.473 28.648C107.017 28.104 107.663 27.832 108.411 27.832C109.159 27.832 109.794 28.104 110.315 28.648C110.836 29.1693 111.097 29.7927 111.097 30.518C111.097 31.2887 110.836 31.946 110.315 32.49C109.794 33.0113 109.159 33.272 108.411 33.272Z" fill="black"/>
</svg>
